<?xml version="1.0" encoding="UTF-8"?>
<svg width="20px" height="20px" viewBox="0 0 20 20" version="1.1" xmlns="http://www.w3.org/2000/svg" xmlns:xlink="http://www.w3.org/1999/xlink">
    <!-- Generator: Sketch 55.2 (78181) - https://sketchapp.com -->
    <title>tishi@1x</title>
    <desc>Created with Sketch.</desc>
    <g id="Page-1" stroke="none" stroke-width="1" fill="none" fill-rule="evenodd">
        <g id="我的提问" transform="translate(-755.000000, -417.000000)" fill="#FA6240">
            <g id="tishi" transform="translate(755.000000, 417.000000)">
                <path d="M19.2140345,6.10759321 C18.7102341,4.91680265 17.9895132,3.84746521 17.0708977,2.9291023 C16.1527312,2.01093583 15.0831973,1.28965361 13.892519,0.785965542 C12.6596633,0.26451411 11.3499452,0 10.000014,0 C8.65039154,0 7.34078571,0.26451411 6.10767739,0.785965542 C4.9171394,1.28965361 3.84746521,2.01082358 2.92921455,2.92899006 C2.01082358,3.84738103 1.28976586,4.91680265 0.786077791,6.10748096 C0.264738608,7.34044897 0,8.65027929 0,10.000014 C0,11.349833 0.264738608,12.6594388 0.786077791,13.8923226 C1.28976586,15.0830851 2.01082358,16.1525348 2.9293268,17.0707854 C3.84746521,17.9890642 4.9169149,18.7102341 6.10767739,19.2139222 C7.34056122,19.7353736 8.65027929,20 10.000014,20 C11.3500575,20 12.6594388,19.7353736 13.8926313,19.2139222 C15.0833096,18.7102341 16.1528435,17.9891764 17.0710099,17.0707854 C17.9895132,16.1525348 18.7103464,15.0830851 19.2141467,13.8923226 C19.7354859,12.6594388 20,11.349833 20,10.000014 C20,8.65027929 19.7354859,7.34044897 19.2140345,6.10759321 Z M17.9319576,13.3505822 C17.4985092,14.3754972 16.8775493,15.2961893 16.0870938,16.0869815 C15.3028681,16.8730313 14.3736451,17.4996317 13.3508067,17.9318454 C12.2896915,18.3806158 11.1621812,18.608172 9.99990178,18.608172 C8.83773465,18.608172 7.710533,18.380728 6.64930553,17.9318454 C5.62427828,17.4983128 4.7038107,16.8776615 3.91324296,16.0869815 C3.12708099,15.3027558 2.50048056,14.3734206 2.06826687,13.3505822 C1.61938423,12.2894951 1.39182801,11.1621812 1.39182801,10.000014 C1.39182801,8.8378469 1.61927198,7.710533 2.06826687,6.64941778 C2.50039638,5.62657937 3.12696874,4.69724415 3.91324296,3.91313072 C4.6973564,3.12696874 5.62657937,2.50039638 6.64930553,2.06815462 C7.710533,1.61938423 8.83773465,1.39171576 9.99990178,1.39171576 C11.1621812,1.39171576 12.2893828,1.61927198 13.3505822,2.06815462 C14.3756095,2.50168724 15.296077,3.12247879 16.086757,3.91313072 C16.8730313,4.69724415 17.4996317,5.62657937 17.9317331,6.64941778 C18.380728,7.710533 18.608172,8.8378469 18.608172,10.000014 C18.608172,11.1621812 18.380728,12.2894951 17.9319576,13.3505822 Z" id="Fill-1"></path>
                <path d="M10.7774831,11.9755488 C10.7248421,12.6186774 10.3591085,12.9192586 9.99800602,12.9192586 C9.72986139,12.9192586 9.99800602,12.9192586 9.99800602,12.9192586 C9.65506802,12.8470041 9.38875012,12.6835109 9.27176167,12.0329612 L8.8,5.95213198 C8.8,5.34090231 9.46462409,4.8 10.028546,4.8 C10.5925708,4.8 11.2,5.36561037 11.2,5.97583331 L10.7774831,11.9755488 Z M10.0001158,13.7147489 C9.43609095,13.7147489 8.97840289,14.2258519 8.97840289,14.8569861 C8.97840289,15.4882066 9.43557638,16 10.0001158,16 C10.5645265,16 11.0219059,15.4882066 11.0219059,14.8569861 C11.0218029,14.2266573 10.5644236,13.7147489 10.0001158,13.7147489 Z" id="Fill-2"></path>
            </g>
        </g>
    </g>
</svg>