<?xml version="1.0" encoding="UTF-8"?>
<svg width="20px" height="22px" viewBox="0 0 20 22" version="1.1" xmlns="http://www.w3.org/2000/svg" xmlns:xlink="http://www.w3.org/1999/xlink">
    <!-- Generator: Sketch 51.2 (57519) - http://www.bohemiancoding.com/sketch -->
    <title>xiazai</title>
    <desc>Created with Sketch.</desc>
    <defs></defs>
    <g id="PC" stroke="none" stroke-width="1" fill="none" fill-rule="evenodd">
        <g id="专题课程" transform="translate(-1432.000000, -529.000000)" fill="#4A90E2" fill-rule="nonzero">
            <g id="xiazai" transform="translate(1432.000000, 529.000000)">
                <path d="M10.8334884,14.0965597 L17.144186,7.61534379 C17.4656814,7.28516146 17.9869284,7.28516146 18.3084238,7.6153438 C18.6299191,7.94552613 18.6299191,8.48085747 18.3084238,8.81103981 L10.6747287,16.6510012 C10.3056554,17.0168238 9.72080456,17.0168238 9.35173127,16.6510012 L1.69157623,8.82462726 C1.48360518,8.61103674 1.40238323,8.29972177 1.47850592,8.00795168 C1.5546286,7.7161816 1.77653106,7.48828322 2.06062479,7.41010366 C2.34471852,7.33192411 2.64784292,7.41534071 2.85581395,7.62893124 L9.16651163,14.1101472 L9.16651163,0.984665862 C9.12590461,0.655622338 9.27403208,0.332101399 9.54668392,0.154342501 C9.81933577,-0.0234163958 10.1674343,-0.0234163958 10.4400861,0.154342501 C10.7127379,0.332101399 10.8608654,0.655622338 10.8202584,0.984665862 L10.8334884,14.0965597 Z M0.739018088,21.9908709 C0.322547351,21.9366595 0.0103308206,21.5728008 0.0103308206,21.141655 C0.0103308206,20.7105092 0.322547351,20.3466505 0.739018088,20.2924391 L19.2609819,20.2924391 C19.6774526,20.3466505 19.9896692,20.7105092 19.9896692,21.141655 C19.9896692,21.5728008 19.6774526,21.9366595 19.2609819,21.9908709 L0.739018088,21.9908709 Z" id="Shape"></path>
            </g>
        </g>
    </g>
</svg>
