<?xml version="1.0" encoding="UTF-8"?>
<svg width="20px" height="20px" viewBox="0 0 20 20" version="1.1" xmlns="http://www.w3.org/2000/svg" xmlns:xlink="http://www.w3.org/1999/xlink">
    <!-- Generator: Sketch 51.2 (57519) - http://www.bohemiancoding.com/sketch -->
    <title>播放 copy 2</title>
    <desc>Created with Sketch.</desc>
    <defs></defs>
    <g id="PC" stroke="none" stroke-width="1" fill="none" fill-rule="evenodd">
        <g id="专题课程" transform="translate(-1488.000000, -736.000000)" fill="#5E5E5E">
            <path d="M1496.17213,750.59683 C1496.11718,750.59683 1496.0622,750.583334 1496.01138,750.557408 C1495.89056,750.496743 1495.81539,750.373337 1495.81539,750.239575 L1495.81539,742.075699 C1495.81539,741.942976 1495.88901,741.821089 1496.00723,741.759386 C1496.12441,741.697684 1496.26703,741.707026 1496.37592,741.782731 L1502.09019,745.757847 C1502.18508,745.823702 1502.24213,745.931562 1502.24369,746.046663 C1502.24527,746.162296 1502.19079,746.270688 1502.09796,746.3391 L1496.38372,750.526822 C1496.32208,750.57227 1496.24807,750.596754 1496.17216,750.59683 L1496.17213,750.59683 Z M1498,754.571414 C1493.27352,754.571414 1489.42857,750.726464 1489.42857,746 C1489.42857,741.273536 1493.27352,737.428561 1498,737.428561 C1502.72648,737.428561 1506.57141,741.273536 1506.57141,746 C1506.57141,750.726464 1502.72648,754.571414 1498,754.571414 L1498,754.571414 Z M1498,736 C1492.47705,736 1488,740.477044 1488,746 C1488,751.522956 1492.47705,756 1498,756 C1503.52345,756 1508,751.522956 1508,746 C1508,740.477044 1503.52345,736 1498,736 L1498,736 Z" id="播放-copy-2"></path>
        </g>
    </g>
</svg>