<?xml version="1.0" encoding="UTF-8"?>
<svg width="28px" height="21px" viewBox="0 0 28 21" version="1.1" xmlns="http://www.w3.org/2000/svg" xmlns:xlink="http://www.w3.org/1999/xlink">
    <!-- Generator: Sketch 51.2 (57519) - http://www.bohemiancoding.com/sketch -->
    <title>右拉</title>
    <desc>Created with Sketch.</desc>
    <defs></defs>
    <g id="PC" stroke="none" stroke-width="1" fill="none" fill-rule="evenodd">
        <g id="播放页-目录-" transform="translate(-1515.000000, -10.000000)" fill-rule="nonzero">
            <g id="右拉" transform="translate(1515.000000, 10.000000)">
                <path d="M2,0 L28,0 L28,21 L2,21 C0.8954305,21 1.3527075e-16,20.1045695 0,19 L0,2 C-1.3527075e-16,0.8954305 0.8954305,2.02906125e-16 2,0 Z" id="Rectangle-12" fill="#A0A2A8"></path>
                <path d="M7.64536343,5.35246688 C7.45070134,5.15660651 7.45167275,4.84002551 7.64753312,4.64536343 C7.84339349,4.45070134 8.15997449,4.45167275 8.35463657,4.64753312 L14.3546366,10.6844675 C14.5484545,10.8794785 14.5484545,11.1943903 14.3546366,11.3894013 L8.42805349,17.3524669 C8.23339141,17.5483273 7.91681041,17.5492987 7.72095004,17.3546366 C7.52508966,17.1599745 7.52411826,16.8433935 7.71878034,16.6475331 L13.295053,11.0369344 L7.64536343,5.35246688 Z" id="Path-2-Copy" fill="#666666"></path>
                <path d="M11.6453634,5.35246688 C11.4507013,5.15660651 11.4516727,4.84002551 11.6475331,4.64536343 C11.8433935,4.45070134 12.1599745,4.45167275 12.3546366,4.64753312 L18.3546366,10.6844675 C18.5484545,10.8794785 18.5484545,11.1943903 18.3546366,11.3894013 L12.4280535,17.3524669 C12.2333914,17.5483273 11.9168104,17.5492987 11.72095,17.3546366 C11.5250897,17.1599745 11.5241183,16.8433935 11.7187803,16.6475331 L17.295053,11.0369344 L11.6453634,5.35246688 Z" id="Path-2-Copy-2" fill="#666666"></path>
            </g>
        </g>
    </g>
</svg>